<svg xmlns="http://www.w3.org/2000/svg" viewBox="0 0 1420 299">
  <g fill="none" fill-rule="evenodd" opacity=".1">
    <g stroke="#000" stroke-width="3">
      <path d="M1285 158h43.4c4 0 7 3 7 7v32.6c0 3.8-3 7-7 7h-24.8l-12.2 12.3c-1 1-3 .2-3-1.3v-11.2h-3.4c-4 0-7-3-7-7V165c0-4 3-7 7-7z"/>
      <path d="M1311 208v3.3c0 4 3.2 7 7 7h16.2l12 12.4c1.2 1 3 .3 3-1.2v-11.3h1.8c4 0 7-3 7-7v-29c0-4-3-7-7-7h-12M1288 173.5v17.2M1295 173.5v17.2M1288.4 182h7M1300.6 182h7M1307.6 175.2h-7V189h7M1311 173.5V189h5.3M1319.7 175.2v7h5.3c1 0 1.7-1 1.7-1.8V177c0-1-.8-1.8-1.7-1.8h-5.3zM1319 190.7v-15.5"/>
    </g>
    <g fill="#000">
      <path d="M1295 122c-.6-.5-1.5-.5-2 0-.3.6-.5 1.5 0 2l3.3 3c.2.3.5.4 1 .4.3 0 .7 0 1-.3.4-.5.4-1.4 0-1.8l-3.3-3.2zM1305.3 132.3c-.6-.6-1.5-.6-2 0s-.5 1.5 0 2l3.3 3c.2.3.5.4 1 .4.3 0 .7 0 1-.3.4-.6.4-1.5 0-2l-3.3-3zM1296 132.3l-3 3.2c-.7.6-.7 1.5 0 2l.8.2c.4 0 .8 0 1-.3l3.2-3.2c.5-.6.5-1.5 0-2-.4-.5-1.3-.5-2 0zM1306.4 122l-3.2 3.2c-.5.6-.5 1.5 0 2l1 .2c.3 0 .7 0 1-.3l3-3c.6-.7.6-1.6 0-2-.3-.5-1.2-.5-1.8 0zM1280.2 241c-4.3 0-8 3.5-8 7.8 0 4.4 3.7 8 8 8s7.8-3.6 7.8-8c0-4.3-3.5-7.8-7.8-7.8zm0 13c-2.8 0-5.3-2.2-5.3-5.2 0-2.8 2.2-5.2 5.2-5.2s5.2 2.3 5.2 5.2c-.2 3-2.4 5.3-5.2 5.3zM1293.8 100.8h-25c-1 0-1.4.6-1.4 1.4 0 .7.5 1.3 1.3 1.3h25c.8 0 1.4-.6 1.4-1.3.3-.8-.5-1.4-1.2-1.4zM1260.6 100.8h-8.2c-.8 0-1.3.6-1.3 1.4 0 .7.6 1.3 1.4 1.3h8c.8 0 1.3-.6 1.3-1.3.2-.8-.3-1.4-1-1.4zM1252.4 95h17.4c.8 0 1.3-.5 1.3-1.3 0-.7-.4-1.3-1.2-1.3h-17.4c-.8 0-1.3.6-1.3 1.3 0 .8.6 1.3 1.4 1.3zM1277.5 95h5.6c1 0 1.4-.5 1.4-1.3 0-.7-.5-1.3-1.3-1.3h-5.5c-.8 0-1.3.6-1.3 1.3-.2.8.5 1.3 1.3 1.3zM1264.2 130v23.7c0 .7.5 1.3 1.3 1.3.7 0 1.3-.6 1.3-1.3V130c0-1-.6-1.4-1.3-1.4-.8 0-1.3.5-1.3 1.3zM1267 169v-7.7c0-.7-.6-1.3-1.3-1.3-.8 0-1.3.6-1.3 1.3v7.7c0 .8.5 1.3 1.3 1.3.5.2 1.3-.5 1.3-1.3z"/>
    </g>
    <g fill="#000">
      <path d="M1218.7 117.6c-.5-.2-9-4-24.7 1.3-1 0-1.3 1.2-1 2 0 .7.7 1 1.4 1h.4c14.3-4.8 22.2-1.4 22.4-1.4.8.4 1.7 0 2-1 .5-.7 0-1.6-.5-2zM1180 142.3c0 .2-5.2 2.8-11.8 0-1-.4-1.7 0-2 1-.6.7 0 1.6.7 2 2.7 1 5 1.5 7.4 1.5 4.2 0 7-1.5 7.2-1.7 1-.4 1-1.4.6-2-.4-1-1.2-1-2-.7z"/>
      <path d="M1252.7 244c0-4-2-7-5-9 3-2 5-5.2 5-9 0-5.8-4.7-10.4-10.4-10.4h-12c5.4-3.4 9-9.6 9-16.4 0-1-.6-1.7-1.7-1.7h-4.3V108c0-2-1.7-3.8-3.8-3.8h-2.3c-2.2 0-4 1.7-4 3.8v2.4c-10.3-4-20.7-1.5-31 .8-10.8 2.4-21 4.7-31.3 0-.5-.2-1-.2-1.5.2-.5.2-.7 1-.7 1.3v36.8c0 .7.4 1.3 1 1.5 4.6 2.2 9.4 3 14 3 6.5 0 13-1.5 19-2.7 10.5-2.4 20.5-4.5 30.3-.5v47h-42c-3.2 0-6 1.4-8 4l-9.7 13.8H1149c-.8 0-1.7.6-1.7 1.7 0 .8.7 1.7 1.7 1.7h15.4c.4 0 1-.2 1.2-.7l10.3-14.5c1-1.7 3-2.7 5-2.7H1236c-1 8.4-8 14.8-16.3 14.8H1193c-.8 0-1.6.6-1.6 1.7 0 .8.6 1.7 1.7 1.7h10.5c-2 2-3 4.5-3 7.4 0 4 2 7 5.2 9-3 2-5 5-5 9 0 3.8 1.8 7 5 9-3 1.8-5 5-5 8.8 0 3.8 1.8 7 5 9-3 2-5 5-5 9 0 2.7 1 5.2 2.8 7h-23.8c-1.7 0-3.4-.3-5-1l-6.5-3c-2.4-1-5-1.6-7.7-1.6h-11.3c-.8 0-1.7.6-1.7 1.7 0 .8.7 1.7 1.7 1.7h11.3c2 0 4.5.4 6.4 1.5l6.5 3c2 .8 4 1.5 6.2 1.5h52.2c5.8 0 10.5-4.7 10.5-10.7 0-2.8-1-5.3-3-7.2h2.4c5.6 0 10.3-4.7 10.3-10.7 0-3.8-2-7-5-9 3.5-2.7 5.4-6 5.4-9.7zm-60.5-96.2c-10.4 2.4-20.4 4.5-30.2.5V115c10.4 4 21 1.5 31-.8 10.5-2.3 20.5-4.5 30.3-.4V147c-10.6-3.6-21-1.5-31 .8zm34 49.7V108c0-.4.3-.6.8-.6h2.3c.4 0 .6.2.6.6v89.5h-3.7zm-22.7 28.3c0-4 3.2-7.3 7.3-7.3h31.3c4 0 7.3 3.2 7.3 7.5 0 4-3.2 7.2-7.2 7.2H1211c-4 0-7.3-3.2-7.3-7.4zm36 54c0 4-3.2 7.3-7.2 7.3H1211c-4 0-7.3-3-7.3-7.3 0-4 3.2-7.3 7.3-7.3h21.5c3.8 0 7 3.2 7 7.5zm10-18c0 4-3.2 7.2-7.2 7.2h-31.5c-4 0-7.3-3.2-7.3-7.4 0-4 3.2-7.3 7.3-7.3h31.3c4.3.2 7.5 3.4 7.5 7.5zm-7.2-10.7H1211c-4 0-7.3-3-7.3-7.3 0-4 3.2-7.3 7.3-7.3h31.3c4 0 7.2 3.2 7.2 7.5 0 4-3.2 7-7.2 7z"/>
      <path d="M1162.6 271.6c20.5-2 27.3-17.7 29.2-24.5.2-.8-.2-1.6-1-1.8-1-.3-1.7.2-2 1-2 7.7-8.5 20.5-26.4 22.2-.8 0-1.5.8-1.5 1.7 0 1 .6 1.6 1.6 1.6-.2 0 0 0 0 0zM1180.6 67.8c.2.3.6.5 1 .5.5 0 1-.2 1-.5.7-.6.7-1.7 0-2.3l-3.3-3.4c-.7-.5-1.7-.5-2.4 0-.7.7-.7 1.8 0 2.4l3.6 3.4zM1191.4 78.7c.2.2.7.4 1 .4.5 0 1 0 1.2-.3.6-.6.6-1.7 0-2.3L1190 73c-.5-.7-1.6-.7-2.2 0-.6.6-.6 1.7 0 2.3l3.6 3.4zM1178.4 79c.5 0 1 0 1-.3l3.5-3.4c.5-.6.5-1.7 0-2.3-.7-.7-1.8-.7-2.4 0l-3.4 3.4c-.7.6-.7 1.7 0 2.3.4.4.8.4 1.2.4zM1189.3 68.5c.4 0 .8-.2 1-.4l3.5-3.3c.6-.7.6-1.7 0-2.4-.7-.6-1.7-.6-2.4 0l-3.4 3.4c-.6.7-.6 1.7 0 2.4.4.3 1 .5 1.3.5zM1126.3 161.5c-.7-.6-1.7-.6-2.4 0-.7.7-.7 1.7 0 2.4l3.3 3.3c.2.2.7.4 1 .4.5 0 1-.2 1.2-.4.6-.6.6-1.7 0-2.3l-3.2-3.5zM1140.5 175.8l-3.4-3.4c-.5-.6-1.6-.6-2.2 0-.7.6-.7 1.7 0 2.3l3.4 3.5c.2.2.6.4 1 .4.5 0 1-.2 1-.4 1-1 1-1.7.3-2.4zM1127.3 172.4l-3.4 3.4c-.7.7-.7 1.7 0 2.4 0 .2.6.4 1 .4s.8-.2 1-.4l3.5-3.5c.6-.6.6-1.7 0-2.3-.5-.6-1.5-.6-2.2 0zM1138.2 161.5l-3.4 3.5c-.7.6-.7 1.7 0 2.3.2.2.6.4 1 .4.5 0 1-.2 1-.4l3.5-3.4c.7-.8.7-1.8 0-2.5-.4-.6-1.5-.6-2 0zM961.3 130.5c-.7-.6-1.7-.6-2.4 0-.7.7-.7 1.7 0 2.4l3.3 3.3c.2.2.7.4 1 .4.5 0 1-.2 1.2-.4.6-.6.6-1.7 0-2.3l-3.2-3.5zM975.5 144.8l-3.4-3.4c-.5-.6-1.6-.6-2.2 0-.7.6-.7 1.7 0 2.3l3.4 3.5c.2.2.6.4 1 .4.5 0 1-.2 1-.4 1-1 1-1.7.3-2.4zM962.3 141.4l-3.4 3.4c-.7.7-.7 1.7 0 2.4 0 .2.6.4 1 .4s.8-.2 1-.4l3.5-3.5c.6-.6.6-1.7 0-2.3-.5-.6-1.5-.6-2.2 0zM973.2 130.5l-3.4 3.5c-.7.6-.7 1.7 0 2.3.2.2.6.4 1 .4.5 0 1-.2 1-.4l3.5-3.4c.7-.8.7-1.8 0-2.5-.4-.6-1.5-.6-2 0z"/>
      <g>
        <path d="M1109.2 269c-.6-.6-1.7-.6-2.3 0-.8.7-.8 1.7 0 2.4l3.3 3.4c.2.2.6.4 1 .4.5 0 1-.2 1-.4.8-.6.8-1.7 0-2.3l-3-3.5zM1120 280c-.6-.7-1.6-.7-2.3 0-.6.5-.6 1.6 0 2.2l3.4 3.5c.4.2.8.4 1.2.4.4 0 1 0 1-.3.7-.7.7-1.7 0-2.4l-3-3.4zM1110.3 280l-3.4 3.3c-.8.7-.8 1.7 0 2.4 0 .2.5.4 1 .4.4 0 .8 0 1-.3l3.4-3.5c.7-.6.7-1.7 0-2.3-.4-.7-1.5-.7-2 0zM1121 269l-3.3 3.5c-.6.6-.6 1.7 0 2.3.3.2.7.4 1 .4.5 0 1-.2 1.2-.4l3.3-3.4c.6-.7.6-1.7 0-2.4-.4-.6-1.5-.6-2.2 0z"/>
      </g>
      <path d="M1074 68.5c4.6 0 8.2-3.6 8.2-8 0-4.6-3.6-8.4-8-8.4-4.6 0-8.2 3.7-8.2 8.2 0 4.5 3.6 8.3 8 8.3zm0-13.2c3 0 5 2 5 5 0 2.7-2 4.8-5 4.8-2.7 0-4.8-2-4.8-4.8s2.3-5 5-5zM1044.7 224.8c-4.5 0-8 3.6-8 8 0 4.6 3.5 8.2 8 8.2s8-3.6 8-8c.3-4.6-3.3-8.2-8-8.2zm0 13c-2.8 0-5-2.2-5-5 0-2.7 2.2-4.8 5-4.8s5 2 5 5c0 2.6-2.2 4.8-5 4.8z"/>
      <g>
        <path d="M964.5 97.7H993c1 0 1.8-.7 1.8-1.7s-.7-1.7-1.7-1.7h-28.5c-.8 0-1.7.6-1.7 1.7 0 1 1 1.7 1.7 1.7zM946 97.7h9.2c.8 0 1.7-.7 1.7-1.7s-.8-1.7-1.8-1.7H946c-.8 0-1.7.6-1.7 1.7 0 1 1 1.7 1.7 1.7zM967.3 106c0-1-.6-1.7-1.7-1.7H946c-.8 0-1.7.6-1.7 1.7 0 .8.6 1.7 1.7 1.7h19.8c1-.2 1.5-1 1.5-1.7zM974.3 104.3c-.8 0-1.7.6-1.7 1.7 0 .8.7 1.7 1.7 1.7h6.4c1 0 1.7-.6 1.7-1.7 0-1-.6-1.7-1.7-1.7h-6.4z"/>
      </g>
      <path d="M1106.5 242.7H1078c-1 0-1.8.6-1.8 1.7 0 .8.7 1.7 1.7 1.7h28.5c.8 0 1.7-.6 1.7-1.6-.3-1-1-1.7-1.7-1.7zM1125 242.7h-9.2c-.8 0-1.7.6-1.7 1.7 0 .8.8 1.7 1.8 1.7h9.2c.8 0 1.7-.6 1.7-1.6-.2-1-1-1.7-1.7-1.7zM1125 233h-19.8c-1 0-1.7.5-1.7 1.6 0 .8.6 1.7 1.7 1.7h19.8c.8 0 1.7-.7 1.7-1.7-.2-1-1-1.7-1.7-1.7zM1090.3 233c-1 0-1.7.5-1.7 1.6 0 .8.6 1.7 1.7 1.7h6.4c.8 0 1.7-.7 1.7-1.7s-.7-1.7-1.7-1.7h-6.4zM1097.4 184l1-1c3.2-3 5.7-6.6 8-10.4 1-1.8 2-3.5 2.7-5.5.3 0 .3-.3.3-.5v-.2c2.8-6.8 4.4-14 4.4-21.4 0-7.3-1.4-14.2-4.2-20.8-1.4-3.3-3.2-6.7-5.2-9.7-.4-.6-1.4-.8-2-.4-.5.5-.7 1.5-.3 2 2 3 3.5 6 5 9.2 2.5 6.2 3.7 13 4 19.5 0 7-1.5 13.6-4 20.2h-.3l-.2.7c-.8 2-1.8 3.8-2.8 5.3-2 3.6-4.5 7-7.5 10l-.8 1-3.4 3c-4 3.3-8.5 6-13.3 8-6 2.4-12.6 3.6-19.4 3.8h-.2c-6.8 0-13.6-1.4-20-4-6.5-2.7-12-6.5-17-11.4-4.7-4.8-8.3-10.4-11-16.7-2.5-6.2-3.7-13-4-19.4 0-7 1.5-13.7 4-20.3 2-4.7 4.7-9 7.8-13l3.8-4c3-3 6.4-5.6 10-7.6 1.5-1 3.3-2 5.3-2.7l1-.6c6.4-2.5 13-3.7 19.5-3.7 7 0 13.7 1.4 20.2 4 6.2 2.5 11.6 6 16.3 11l-8.3 8.2c-3.6-3.6-7.8-6.4-12.5-8.3-5-2.2-10.3-3.2-15.7-3.2-3.6 0-7 .4-10.3 1.4-1.6.4-3.2 1-4.8 1.6l-1.5.6c-4.3 2-8 4.3-11.3 7.5l-.2.3c-1.3 1.4-2.7 2.8-4 4.4-2 2.7-3.7 5.7-5 9-2.3 4.8-3.3 10.2-3.3 15.6 0 5 1 10.3 3 15 2 4.8 4.8 9.2 8.6 13 3.7 3.7 8 7 13.2 8.8 5 2.3 10.2 3.3 15.5 3.3h.2c5.2 0 10.3-1 15-3 3.5-1.3 6.4-3 9.2-5l3.7-3.3c.4-.2.6-.6.8-.8 3.2-3.2 5.7-7 7.5-11l.6-1.3c.8-1.7 1.2-3.4 1.8-5.2 1-3.4 1.4-7 1.4-10.5 0-5.2-1-10.4-3-15l-1.2-2.7-1.2-2.2c-.4-.8-1.4-1-2-.6-.7.4-1 1.4-.6 2l1.2 2.2 1.2 2.6c1.8 4.5 2.8 9 2.8 14 0 3.2-.4 6.6-1.4 9.8-.4 1.6-1 3-1.6 4.7l-.4 1c-1.8 4-4 7.5-7 10.4-.3.2-.5.6-1 .8-1 1.2-2.3 2.2-3.3 3-2.6 2-5.3 3.6-8.5 5-4.6 1.8-9 2.7-14 2.7h-.3c-5 0-9.7-1-14.3-3-4.5-2-8.7-4.8-12.3-8.4-3.4-3.3-6-7.3-7.8-12-1.8-4.2-2.8-9-2.8-14s1-10 3-14.4c1.2-3 2.8-5.8 4.8-8.2 1-1.3 2-2.7 3.5-4h.2c3-3 6.5-5.5 10.2-7.3l1.4-.6c1.6-.5 3-1 4.4-1.2 3.2-.8 6.3-1.2 9.5-1.4 5 0 10 1 14.5 3 4.4 1.7 8 4.3 11.5 7.7l-7.3 7.4c-2.4-2.4-5.2-4.2-8.2-5.3-2.5-1-5.3-1.7-8-2h-2.3c-2 0-4 .3-5.7.7-1.4.4-2.8.8-4.2 1.4-3.2 1.2-6 3-8.3 5.6l-.2.2c-1.4 1.4-2.8 3-3.8 4.6-1 1.4-1.6 2.7-2.4 4.3-1.3 3.4-2 6.8-2 10.5 0 3.4.5 6.8 2 10.2 1.3 3 3 6 5.5 8.5 2.6 2.5 5.5 4.5 8.7 5.8 3.4 1.4 6.7 2.2 10.3 2.2 3.4 0 7-.6 10-2 1.7-.6 3-1.3 4.5-2.3h.2c1.4-1 2.8-2 4-3.2l.8-.8c2-2.4 4-5 5.3-8 .6-1.5 1-3 1.4-4.5.4-2 .6-4 .6-6v-2c-.2-3-.8-5.7-2-8-.4-1-1.2-1.3-2-1-.8.5-1.2 1.3-.8 2 1 2.3 1.4 4.7 1.8 7.3v2c0 1.7-.2 3.5-.6 5.3l-1.2 4c-1.2 2.5-2.7 5-4.7 7l-.6.7c-1 1-2.2 2-3.6 2.8h-.2c-1.2.8-2.6 1.6-4 2.2-3 1.2-6 1.7-9 1.7-3.3 0-6.2-.5-9.2-1.7-3-1.2-5.6-3-7.7-5.4-2.2-2-3.8-4.7-5-7.4-1.2-3-1.8-6-1.8-9s.6-6.3 1.8-9.3c.6-1.4 1.2-2.6 2-3.7.8-1.4 2-2.8 3.4-4.2v-.2c2.2-2 4.6-3.6 7.4-4.8 1.2-.6 2.4-.8 3.8-1.2 1.5-.4 3.3-.6 5-.6h2c2.5.2 5 .8 7.4 1.8 2.8 1.2 5.2 2.8 7.4 4.8l-9 9c-1.5-1-3-1.7-5-2-5.7-1.3-11.4 2-13.6 7.3-.6 1.4-.8 3-.8 4.3 0 6.6 5.4 12 12 12 1.5 0 3-.3 4.3-1 3.6-1.2 6.4-4.6 7.2-8.6.2-.8-.4-1.6-1.2-1.8-.8-.2-1.6.4-1.8 1.2-.6 3-2.5 5.4-5.5 6.6-1 .4-2.2.6-3.4.6-5 0-9-4-9-9 0-1.2.3-2 .7-3.3 1.6-4 5.7-6.4 10.3-5.6 1.2 0 2.4.7 3.4 1.3l-6.4 6.3c-.6.6-.6 1.6 0 2.2.2.2.6.4 1 .4s.8-.2 1-.4l55.4-55.3L1128 96h.3c.4 0 .8 0 1-.3L1152 73c.3-.3.5-1 .3-1.5-.2-.6-.6-1-1-1l-13.4-2.6-2.7-13.4c-.2-.6-.6-1-1-1.2-.6-.2-1.2 0-1.6.4L1111 75c-.3.4-.5.8-.3 1.4l2.6 13.5-16 15.8c-5-5-10.6-8.7-17.2-11.5-6.8-2.8-14-4.4-21.3-4.4-7 0-14 1.3-20.6 4-.3.3-1 .5-1.3.7-2 .8-3.8 1.8-5.6 2.8-3.6 2-7.2 5-10.4 8l-4 4.4c-3.3 4-6 8.5-8.3 13.6-2.7 6.8-4.3 14-4.3 21.5 0 7.2 1.4 14 4 20.7 3 6.5 6.7 12.5 11.6 17.6 5.2 5.4 11 9.4 18 12.3 6.8 2.8 14 4.4 21.3 4.4 7.3 0 14.2-1.4 20.7-4.2 5.2-2 10-5 14-8.3l3.7-3.4zM1134 56.5l2.3 11.5c.2.5.6 1 1.2 1l11.5 2.5-20.3 20-12.5-2.4-2.5-12.4 20.2-20.2z"/>
    </g>
    <g stroke="#000" stroke-width="2.5">
      <path d="M984.6 37.2h5.2c1.2 0 2.3.6 4.2-1.7 2-2.3 4.7-4.4 7.6-4.4h1.2M1001.3 37.2h12.6c2.2 0 4 2 4 4.2-.3 6.4-1 18.7-4.2 18.7h-14.3c-3.6 0-7-4.4-8.7-4.4h-6.2"/>
      <path d="M977 60h7.6V34H977M979 37.2v4.6M1026.8 36.8c6 6.2 6 16.3 0 22.5M1031.7 31.8c9 9 9 23.5 0 32.5M1036.7 27c11.6 11.6 11.6 30.6 0 42.3M1013 60c.4 1.5 1 2.6 1.3 3.4 1.7-.6 3.8-1 5-1 2.8 3 4.4 7.4 5 11.7-2 2.3-4.8 4.4-8.5 6-4-3-9.4-8-11.6-20M1004 37.2c2-13.2 7.5-18.6 11.8-21.6 3.7 1.5 6.4 3.6 8.5 5.8-.6 4.3-2.2 8.7-5 11.7-1.2 0-3.3-.3-5-1-.6 1.2-1.3 3-2 5.2"/>
    </g>
    <g stroke="#000" stroke-width="2.5" transform="translate(947 166)">
      <path d="M46 11.2l-13 5.2c-2.2 1-4.7.6-7 .4h-2.3c-2.4 0-5 .2-7-.7L4.3 11.3c-4-1.6-6.2 4.4-2.3 6l12.4 5c2 .7 3.2 2.8 3 5l-.5 7.4c-.2 2.4-.4 5-1.3 7.2L8.7 60C8 62 9 64 11 64.8c.3.2.8.3 1.2.3 1.5 0 3-.8 3.5-2.3l7.3-19c.3-.7 1-1 1.5-1 .6 0 1.2.3 1.4 1 4.3 14 1 9.4 14 18.2 1.7 1 4 .5 5-1.2 1.3-1.7.8-4-1-5.2L39 52c-2-1.3-3.6-3.3-4.4-5.6L33 41c-.8-2.3-1.2-4.8-1.2-7.3 0-2-.2-4-.4-6.2 0-2 1.3-4 3.3-5l13.5-5.3c4-1.6 1.6-7.6-2.3-6z"/>
      <ellipse cx="24.7" cy="6.6" rx="6.1" ry="6.2"/>
      <path d="M5.5 69.4H68V89h34.5v19.4h34.8" stroke-linecap="round"/>
    </g>
    <g>
      <g stroke="#000" stroke-width="3">
        <path d="M143.6 121.3c-1.7 6-6.3 10.6-12.3 12.3m0-34.2c6 1.7 10.6 6.4 12.3 12.3m-34.2 0c1.7-6 6.3-10.6 12.3-12.3m0 34.2c-6-1.7-10.6-6.3-12.3-12.3M158 121c-2 14-13 25-27 27m0-63c14 2 25 13 27 27m-63 0c2-14 13-25 27-27m0 63c-14-2-25-13-27-27"/>
        <path d="M131.3 134.3c0-1.8-1.4-3.3-3.2-3.3h-3c-2 0-3.3 1.5-3.3 3.2v14.6c0 1.8 1.4 3.2 3.2 3.2h3c2 0 3.3-1.4 3.3-3.2v-14.6zM162 115c0-2-1.4-3.3-3.2-3.3h-14.6c-1.7 0-3.2 1.4-3.2 3.2v3c0 2 1.5 3.3 3.2 3.3h14.6c1.8 0 3.2-1.4 3.2-3.2v-3zM112 115c0-2-1.5-3.3-3.3-3.3H94.3c-1.8 0-3.2 1.4-3.2 3.2v3c0 2 1.4 3.3 3.2 3.3h14.5c1.8 0 3.3-1.4 3.3-3.2v-3zM131.3 84.2c0-1.8-1.4-3.2-3.2-3.2h-3c-2 0-3.3 1.4-3.3 3.2v14.5c0 1.8 1.4 3.3 3.2 3.3h3c2 0 3.3-1.5 3.3-3.3V84.3zM92.6 98.8v-5c0-6 5-11.2 11.3-11.2h4.7M160.4 98.8v-5c0-6-5-11.2-11.3-11.2h-4.8M92.6 134.3v4.8c0 6.3 5 11.4 11.3 11.4h4.7M160.4 134.3v4.8c0 6.3-5 11.4-11.3 11.4h-4.8"/>
      </g>
      <g fill="#000">
        <path d="M199 51c0 .4.5.4 1 .4.3 0 .8-.2 1-.4.6-.6.6-1.6 0-2.2l-3.3-3.3c-.6-.6-1.7-.6-2.3 0-.6.6-.6 1.6 0 2.2L199 51zM209.8 62c.2.3.6.5 1 .5s.8-.2 1-.4c.7-.5.7-1.5 0-2.2l-3.2-3.2c-.7-.7-1.7-.7-2.3 0-.6.6-.6 1.6 0 2.2l3.5 3.3zM196.6 62.5c.5 0 1-.2 1-.4L201 59c.6-.6.6-1.6 0-2.2-.7-.7-1.7-.7-2.3 0l-3.3 3.2c-.6.7-.6 1.7 0 2.3.4.3.8.5 1.2.5zM207.5 51.4c.4 0 1-.2 1-.4l3.3-3.3c.7-.6.7-1.6 0-2.2-.6-.6-1.6-.6-2.2 0l-3.3 3.3c-.6.6-.6 1.6 0 2.2.4.4.8.4 1.2.4zM394.5 270c-.6-.5-1.6-.5-2.3 0-.6.8-.6 1.8 0 2.4l3.3 3.3c.2.2.7.4 1 .4.5 0 1 0 1-.3.7-.6.7-1.7 0-2.3l-3-3.3zM405.6 281c-.6-.6-1.6-.6-2.3 0-.6.6-.6 1.7 0 2.3l3.3 3.3c.2.2.6.4 1 .4.5 0 1-.2 1-.4.7-.6.7-1.7 0-2.3l-3-3.3zM395.7 281l-3.2 3.3c-.7.6-.7 1.7 0 2.3.2.2.6.4 1 .4s.8-.2 1-.4l3.3-3.3c.6-.6.6-1.7 0-2.3-.4-.6-1.4-.6-2 0zM406.8 270l-3.3 3.4c-.6.6-.6 1.7 0 2.3.3.2.7.4 1 .4.5 0 1 0 1-.3l3.4-3.3c.5-.6.5-1.6 0-2.3-.7-.5-1.5-.5-2.2 0zM327.5 237.7c-.6-.6-1.6-.6-2.2 0-.7.6-.7 1.6 0 2.3l3.3 3.2c.2.2.6.5 1 .5s.8-.3 1-.5c.6-.6.6-1.6 0-2.2l-3-3.3zM338.4 248.6c-.6-.6-1.6-.6-2.2 0-.7.6-.7 1.6 0 2.2l3.2 3.3c.2.3.7.5 1 .5.5 0 1-.2 1-.4.7-.5.7-1.5 0-2l-3-3.4zM328.8 248.6l-3.3 3.3c-.6.5-.6 1.5 0 2 .2.3.6.5 1 .5s.8-.2 1-.4l3.3-3.2c.6-.6.6-1.6 0-2.2-.4-.6-1.4-.6-2 0zM339.6 237.7l-3.2 3.3c-.7.6-.7 1.6 0 2.2.2.2.6.5 1 .5s.8-.3 1-.5l3.3-3.2c.6-.7.6-1.7 0-2.3-.6-.6-1.4-.6-2 0zM199.3 144v25c0 .7.6 1.5 1.7 1.5.8 0 1.6-.6 1.6-1.6v-25c0-.8-.6-1.6-1.6-1.6s-1.7.8-1.7 1.7zM200.8 179c-1 0-1.7.6-1.7 1.6v8.8c0 1 .7 1.7 1.8 1.7.8 0 1.6-.5 1.6-1.6v-8.8c0-1-.8-1.6-1.6-1.6zM433 194.8c-1 0-1.7.6-1.7 1.6v25c0 .7.6 1.5 1.6 1.5.8 0 1.6-.7 1.6-1.7v-25c0-1-.8-1.5-1.7-1.5zM433 231c-1 0-1.7.7-1.7 1.8v8.8c0 .8.6 1.6 1.6 1.6.8 0 1.6-.6 1.6-1.6v-8.8c0-1-.8-1.7-1.7-1.7zM261.8 202.2c-4 0-7.4 3.3-7.4 7.4 0 4 3.3 7.4 7.4 7.4 4 0 7.4-3.3 7.4-7.4 0-4-3.3-7.4-7.4-7.4zm0 11.5c-2.3 0-4.3-2-4.3-4.3s1.8-4.4 4.3-4.4c2.2 0 4.3 2 4.3 4.4 0 2.4-1.8 4.3-4.2 4.3zM417.7 90.4c-4 0-7.4 3.3-7.4 7.4 0 4.2 3.3 7.4 7.4 7.4 4 0 7.4-3.2 7.4-7.4 0-4-3.2-7.4-7.3-7.4zm0 11.8c-2.2 0-4.3-2-4.3-4.4 0-2.2 2-4.3 4.3-4.3s4.3 2 4.3 4.3c0 2.5-1.8 4.4-4.3 4.4zM237.7 243.4c0-.8-.6-1.6-1.6-1.6H204c-.8 0-1.6.6-1.6 1.6s.6 1.7 1.6 1.7h32.5c.8 0 1.4-.7 1.4-1.6zM215 233.8h7.3c.8 0 1.7-.6 1.7-1.6s-.6-1.7-1.7-1.7H215c-1 0-1.7.6-1.7 1.7.2 1 .8 1.6 1.6 1.6zM479.7 116.4c0-.8-.6-1.6-1.6-1.6H446c-.8 0-1.6.6-1.6 1.6s.6 1.7 1.6 1.7h32.5c.8 0 1.4-.7 1.4-1.6zM457 106.8h7.3c.8 0 1.7-.6 1.7-1.6s-.6-1.7-1.7-1.7H457c-1 0-1.7.6-1.7 1.7.2 1 .8 1.6 1.6 1.6zM386.7 49.8h32.5c.8 0 1.6-.6 1.6-1.7 0-.7-.6-1.5-1.6-1.5h-32.5c-.8 0-1.6.6-1.6 1.6.3 1.2 1 1.8 1.7 1.8zM430 49.8h10.3c1 0 1.7-.6 1.7-1.7 0-.7-.6-1.5-1.7-1.5H430c-1 0-1.8.6-1.8 1.6.2 1.2.8 1.8 1.7 1.8zM440.3 57.8h-22.6c-.8 0-1.6.6-1.6 1.6s.7 1.7 1.7 1.7h22.6c1 0 1.7-.5 1.7-1.6 0-.8-.6-1.6-1.7-1.6zM400.7 57.8c-.8 0-1.7.6-1.7 1.6s.6 1.7 1.7 1.7h7.4c1 0 1.7-.5 1.7-1.6 0-.8-.6-1.6-1.6-1.6h-7.3zM304 64.2c.7 0 1.5-.7 1.5-1.7V38.3c0-.8-.6-1.7-1.6-1.7s-1.7.7-1.7 1.7v24.2c.2.8.8 1.7 1.6 1.7zM273 71.6c.3.4 1 .8 1.3.8.2 0 .6 0 .8-.2 1-.4 1.2-1.5.7-2l-12.3-21c-.4-1-1.4-1-2-.6-1 .4-1 1.4-.7 2l12.4 21zM231.4 81.4l21 12h1c.6 0 1 0 1.4-.7.4-.8.2-1.6-.6-2l-21.2-12c-.8-.4-1.6-.2-2 .7-.5.8-.2 1.6.4 2zM221.5 123l24.2-.3c1 0 1.7-.6 1.5-1.7 0-.8-.6-1.4-1.7-1.4l-24.2.2c-.8 0-1.6.6-1.4 1.7 0 .6.7 1.4 1.5 1.4zM253 148.8l-21 12c-.8.5-1 1.5-.6 2 .2.6.8 1 1.4 1 .2 0 .6 0 .8-.2l21-12.2c.8-.4 1-1.4.6-2-.6-.8-1.6-1-2.3-.6zM288.7 64.4c.2.6.8 1 1.4 1h.5c1-.2 1.3-1 1-2l-4.2-13.8c-.3-.8-1-1.3-2-1-.7.2-1 1-1 1.8l4.4 14zM262.6 79.6c.2.2.6.4 1 .4s.8-.2 1.3-.4c.5-.7.5-1.7 0-2.3l-10.8-10c-.6-.5-1.7-.5-2.3 0-.7.8-.7 1.8 0 2.4l10.6 10zM249.2 104.8c.2-.8-.4-1.6-1.2-1.8l-14.2-3c-.8-.3-1.6.3-1.8 1-.2 1 .4 1.8 1.2 2l14.2 3h.4c.8 0 1.4-.6 1.4-1.2zM232.8 137.7c-.8.2-1.2 1-1 1.8.2.6.8 1 1.4 1h.4l14-4.5c.8-.2 1.2-1 1-1.8-.2-.8-1-1.2-1.8-1l-14 4.5zM260.7 160.3L251 171c-.7.6-.7 1.6 0 2.2.3.2.7.4 1 .4.5 0 1-.2 1.4-.4l9.8-10.7c.6-.6.6-1.6-.2-2.2-.8-.6-1.8-.6-2.3 0zM333 72c0 .2.5.2.7.2.6 0 1-.2 1.2-.8l12.3-21c.4-.8.2-1.6-.7-2-.8-.5-1.6-.3-2 .6l-12.3 21c-.5.7-.3 1.6.6 2zM317.3 65.4h.4c.6 0 1.2-.4 1.4-1l4.4-14c.2-.8-.2-1.6-1-1.8-.8-.3-1.7.2-2 1l-4.2 14c-.2.8.2 1.6 1 1.8zM343.3 79.6c.3.4 1 .4 1.3.4.4 0 .8-.2 1-.4l10.7-10c.6-.5.6-1.5 0-2.2-.6-.6-1.7-.6-2.3 0l-10.7 10c-.6.5-.6 1.5 0 2.2z"/>
        <path d="M406.8 145.7c-1.2-2.7-2-5.3-2.6-8.2l-2-11.5c-1.3-7-5-14.4-10.8-21-17.6-20.5-40.7-21.5-41.7-21.5h-20.5c-6.4-4.6-14-7.4-22.2-7.8-12.3-1-24 3.2-33 11.7-8.7 8.2-13.7 20-13.7 31.8 0 6.8 1.5 13.4 4.6 19.3v.2c1 2 2 4 3.4 5.8 6.7 12 11.5 25.2 14 39.4 1 3.8 1.6 8 2 11.8v.4c1 2.7 3 4.5 5.7 5 .7 4 3.8 7.3 8 8.8v4c0 .7.8 1.5 1.8 1.5.8 0 1.6-.6 1.6-1.6v-3.2c1 .2 2 .2 2.7.2 2 0 3.8-.2 5.4-.8v74c0 4.8-4 8.7-8.6 8.7h-80c-1 0-1.8.6-1.8 1.6 0 .8.7 1.6 1.7 1.6h80c6.7 0 11.8-5.3 11.8-11.7v-74.7l-.2-1c3-1.7 5.2-4.4 5.6-7.5 2.7-.8 5-3.2 5.8-6.3.2-2.5.6-4.7 1-7 2.7-16.4 8.3-32 16-45.4.5-.6.7-1 1-1.6 0 0 0-.2.3-.2 4.2-7.2 6-15.4 5.7-24-.7-11.8-6.2-22.7-14.6-30h16.7c.2 0 22.6 1 39.5 20.5 5.3 6.2 8.8 13 9.8 19.5l2 11.5c.7 3 1.5 6.2 3 9l13 27c.3.8.3 1.8-.3 2.8-.6 1-1.4 1.6-2.5 1.6h-11c-.7 0-1.5.6-1.5 1.6v24c0 .6-1.6 12.8-15.2 13.6H365c-1 0-1.7.6-1.7 1.6 0 .8.6 1.7 1.6 1.7h5.5v29.6c0 1 .6 1.7 1.6 1.7s1.8-.6 1.8-1.7v-30.2h13c16.3-.8 18.4-16 18.4-16.4v-22.8h9.2c2 0 4-1 5.2-3 1-1.7 1.2-3.8.4-5.6l-13.2-27zM304 140c2.8 2 6.7 4.3 10.8 5.3-3 11-5.6 27-6.4 32.2h-8.6c-.8-5-3.3-21.3-6.4-32.2 4-1 8-3 10.7-5.4zm-3.6-9s-.4-4.2 3-4.8h1c3.6.6 3.2 4.7 3.2 5-.2 2-2.3 4-3.7 5-1.3-1.2-3.4-3-3.6-5zm-3 49.8c.5.2.7.4 1.2.2l.6-.2h9.4c.2.2.4.2.6.2h.2l1-.2h12.2l-1.2 6.6-.2.8h-34.6c-.2-1.6-.4-3.3-.8-4.7l-.6-2.5 12.3-.2zm6.7 27c-5 0-9.6-2.5-10.6-6.2h21.2c-.8 3.7-5.4 6.3-10.5 6.3zm11.4-9.3h-22.8c-2.3 0-4.3-1.5-5-3.3-.3-1.2-.6-2.7-.6-4h34.2c-.2 1-.2 2-.5 3.2-.6 2.4-2.6 4-5.3 4zm29-81.6c.4 7.7-1.5 15.3-5.2 22l-1 2c-6.6 11-11.3 23.6-14.6 36.7h-12c.7-5.5 3.2-21 6.3-31.8 1.5 0 3.2 0 4.6-.3 3.5-1 5-4.5 4.7-7.4-.2-2.7-1.8-4.5-4-5-1.5 0-4.2.5-5.6 3.8-.7 1.5-1.3 3.4-2 5.4-3.2-.8-6.7-2.7-9-4.3 1.7-1.3 4-3.6 4.2-6.7 0-3.5-1.6-7.6-6-8.2h-1.7c-4.3 1-6 5-5.8 8.3.2 3 2.5 5.4 4 6.8-2 1.7-5.6 3.6-9 4.4-.5-2-1-4-1.8-5.3-1.4-3.2-4-3.8-5.5-3.6-2.3.2-4 2.2-4 5-.3 2.8 1 6.3 4.6 7.3 1.5.4 3 .4 4.7.2 3 10.4 5.6 26 6.4 31.7h-12.2c-3-12.5-7.4-24.2-13.4-35l-3.3-5.4v-.2c-2.7-5.5-4.2-11.6-4.2-17.8 0-11 4.8-22 13-29.6 8.2-7.8 19-11.5 30.4-11 7.6.8 14.8 3.2 20.7 7.5 0 .3.3.5.6.5 8.8 6.8 15.2 18 15.8 30.4zm-25.7 25.8l1.6-4.7c1-2 2.3-1.8 2.3-1.8 1.2.3 1.4 1.7 1.4 2 .2 1.7-.6 3.8-2.4 4.2-1 .4-2 .6-3 .4zm-29.2 0c-1 0-2 0-3-.2-1.7-.6-2.5-2.5-2.3-4 0-.5.2-2 1.4-2 .4 0 1.4 0 2.3 1.7l1.5 4.5z"/>
        <path d="M299.8 223.7c.8 0 1.6-.6 1.6-1.6v-1c0-.8-.6-1.6-1.6-1.6-.8 0-1.7.6-1.7 1.7v1c0 1 1 1.7 1.8 1.7zM298 245.7c0 .8.8 1.7 1.8 1.7.8 0 1.6-.7 1.6-1.7V230c0-.7-.6-1.5-1.6-1.5-.8 0-1.7.6-1.7 1.6V245.7zM222 283.7c.7 0 1.6-.6 1.6-1.6 0-.8-.7-1.6-1.7-1.6H209.7c-1 0-1.8.6-1.8 1.7 0 1 .6 1.7 1.6 1.7H222zM298 254c0 1 .8 1.8 1.8 1.8.8 0 1.6-.6 1.6-1.7v-1c0-.7-.6-1.5-1.6-1.5-.8 0-1.7.6-1.7 1.6v1zM246.4 280.6H238c-.7 0-1.5.6-1.5 1.7 0 .8.6 1.6 1.6 1.6h16c.8 0 1.6-.7 1.6-1.7s-.6-1.7-1.6-1.7h-7.6zM298 275.7v1.2c-.3.7 0 1.6 1 1.8h.4c.6 0 1.2-.4 1.4-1 .2-.7.2-1.5.2-2.3V261.4c0-.8-.6-1.6-1.6-1.6-.8 0-1.7.5-1.7 1.5v14.1h.4zM294.4 283.7c1-.2 1.5-.8 1.5-1.6-.3-.8-1-1.4-1.8-1.4h-.8c-.8 0-1.4.6-1.4 1.7 0 .8.8 1.6 1.6 1.6 0-.3.4-.3.8-.3zM229.5 280.6c-.8 0-1.6.6-1.6 1.7 0 .8.5 1.6 1.5 1.6h1c1 0 1.7-.7 1.7-1.7s-.6-1.7-1.7-1.7h-1zM261.4 280.6c-1 0-1.7.6-1.7 1.7 0 .8.6 1.6 1.7 1.6h1c.8 0 1.6-.7 1.6-1.7s-.6-1.7-1.6-1.7h-1zM269.8 283.7H285.4c.8 0 1.6-.6 1.6-1.6 0-.8-.6-1.6-1.6-1.6H269.8c-.8 0-1.7.6-1.7 1.7.4 1 1 1.7 1.8 1.7zM356 283.5c-1 0-1.8.6-1.8 1.6v4.2c0 1 .7 1.7 1.7 1.7.7 0 1.5-.7 1.5-1.8v-4c0-1-.8-1.7-1.6-1.7zM356 247.6c-1 0-1.8.6-1.8 1.6v1c0 .8.7 1.7 1.7 1.7.7 0 1.5-.7 1.5-1.8v-1c0-1-.8-1.6-1.6-1.6zM356 230c-1 0-1.8.5-1.8 1.5V245c0 1 .7 1.7 1.7 1.7.7 0 1.5-.6 1.5-1.6V231.7c0-1-.8-1.7-1.6-1.7zM356 274.3c-1 0-1.8.6-1.8 1.6v1c0 .7.7 1.6 1.7 1.6.7 0 1.5-.6 1.5-1.7v-1c0-1-.8-1.7-1.6-1.7zM356 256.8c-1 0-1.8.6-1.8 1.6V272c0 .8.7 1.6 1.7 1.6.7 0 1.5-.6 1.5-1.6V258.5c0-1-.8-1.7-1.6-1.7zM391.6 142.2c1 0 1.7-.6 1.7-1.4 1.8-28-22.4-39.3-22.6-39.3-.8-.4-1.7 0-2 1-.5.7 0 1.5.7 2 .2 0 22.4 10.4 20.8 36 0 1 .6 1.5 1.4 1.7z"/>
      </g>
      <g fill="#000">
        <path d="M53.7 166.3c.2.2.7.4 1 .4.6 0 1-.2 1.2-.4.6-.7.6-1.8 0-2.2l-3.6-3.5c-.6-.6-1.7-.6-2.2 0-.6.7-.6 1.8 0 2.3l3.5 3.5zM65.6 178c.2.2.6.4 1 .4.5 0 1-.2 1.2-.4.6-.7.6-1.8 0-2.2l-3.5-3.6c-.7-.6-1.8-.6-2.2 0-.6.7-.6 1.8 0 2.2l3.6 3.6zM51.3 178.6c.5 0 1-.2 1-.4l3.6-3.5c.6-.7.6-1.8 0-2.3-.7-.6-1.8-.6-2.3 0l-3.5 3.6c-.6.6-.6 1.7 0 2.2.2.2.7.4 1 .4zM63 166.7c.4 0 .8-.2 1-.4l3.6-3.5c.6-.7.6-1.8 0-2.3-.7-.6-1.8-.6-2.2 0L62 164c-.8.7-.8 1.8 0 2.3.3.4.7.4 1 .4zM151 267.8c-.7-.7-1.7-.7-2.2 0-.6.6-.6 1.7 0 2.2l3.5 3.5c.2.2.7.4 1 .4.6 0 1-.3 1.2-.5.7-.7.7-1.8 0-2.2l-3.5-3.5zM162.6 279.5c-.6-.7-1.7-.7-2 0-.6.6-.8 1.7 0 2.2l3.4 3.5c.2.2.6.4 1 .4.5 0 1-.2 1.2-.4.6-.7.6-1.8 0-2.2l-3.6-3.5zM152.3 279.5l-3.5 3.5c-.6.6-.6 1.7 0 2.2.2.2.7.4 1 .4.5 0 1-.2 1.2-.4l3.5-3.5c.7-.7.7-1.8 0-2.2-.6-.7-1.5-.7-2.2 0zM164 267.8l-3.5 3.5c-.7.7-.7 1.8 0 2.2.2.2.6.4 1 .4.5 0 1-.3 1-.5l3.7-3.5c.6-.7.6-1.8 0-2.2-.5-.7-1.6-.7-2.2 0zM403 14.8c-.7-.7-1.7-.7-2.2 0-.6.6-.6 1.7 0 2.2l3.5 3.5c.2.2.7.4 1 .4.6 0 1-.3 1.2-.5.7-.7.7-1.8 0-2.2l-3.5-3.5zM414.6 26.5c-.6-.7-1.7-.7-2 0-.6.6-.8 1.7 0 2.2l3.4 3.5c.2.2.6.4 1 .4.5 0 1-.2 1.2-.4.6-.7.6-1.8 0-2.2l-3.6-3.5zM404.3 26.5l-3.5 3.5c-.6.6-.6 1.7 0 2.2.2.2.7.4 1 .4.5 0 1-.2 1.2-.4l3.5-3.5c.7-.7.7-1.8 0-2.2-.6-.7-1.5-.7-2.2 0zM416 14.8l-3.5 3.5c-.7.7-.7 1.8 0 2.2.2.2.6.4 1 .4.5 0 1-.3 1-.5l3.7-3.5c.6-.7.6-1.8 0-2.2-.5-.7-1.6-.7-2.2 0z"/>
        <g>
          <path d="M456 145.8c-.7-.7-1.7-.7-2.2 0-.6.6-.6 1.7 0 2.2l3.5 3.5c.2.2.7.4 1 .4.6 0 1-.3 1.2-.5.7-.7.7-1.8 0-2.2l-3.5-3.5zM467.6 157.5c-.6-.7-1.7-.7-2 0-.6.6-.8 1.7 0 2.2l3.4 3.5c.2.2.6.4 1 .4.5 0 1-.2 1.2-.4.6-.7.6-1.8 0-2.2l-3.6-3.5zM457.3 157.5l-3.5 3.5c-.6.6-.6 1.7 0 2.2.2.2.7.4 1 .4.5 0 1-.2 1.2-.4l3.5-3.5c.7-.7.7-1.8 0-2.2-.6-.7-1.5-.7-2.2 0zM469 145.8l-3.5 3.5c-.7.7-.7 1.8 0 2.2.2.2.6.4 1 .4.5 0 1-.3 1-.5l3.7-3.5c.6-.7.6-1.8 0-2.2-.5-.7-1.6-.7-2.2 0z"/>
        </g>
        <path d="M181 104.7c0 4.2 3.6 7.7 7.8 7.7 4.2 0 7.7-3.5 7.7-7.7S193 97 188.8 97c-4.4 0-7.7 3.5-7.7 7.7zm12.2 0c0 2.4-2 4.4-4.4 4.4-2.4 0-4.4-2-4.4-4.3 0-2.4 2-4.4 4.4-4.4 2.4 0 4.4 2 4.4 4.4zM338 12.7c0 4.2 3.6 7.7 7.8 7.7 4.2 0 7.7-3.5 7.7-7.7S350 5 345.8 5c-4.4 0-7.7 3.5-7.7 7.7zm12.2 0c0 2.4-2 4.4-4.4 4.4-2.4 0-4.4-2-4.4-4.3 0-2.4 2-4.4 4.4-4.4 2.4 0 4.4 2 4.4 4.4zM106.8 253c-4.2 0-7.7 3.5-7.7 7.7s3.6 7.7 7.8 7.7c4.2 0 7.7-3.5 7.7-7.7s-3.5-7.7-7.7-7.7zm0 12.3c-2.4 0-4.4-2-4.4-4.4 0-2.5 2-4.5 4.4-4.5 2.4 0 4.4 2 4.4 4.4 0 2-2 4.3-4.4 4.3zM218.5 293h-20c-1 0-1.6.7-1.6 1.5 0 1 .6 1.6 1.5 1.6h20c.8 0 1.5-.6 1.5-1.5 0-.8-.7-1.5-1.5-1.5zM181 219.8c0-12.5-10.2-22.6-22.6-22.6-2.7 0-5 .5-7.5 1.2-1.3-11.3-11-20-22.4-20-10 0-18.7 6.8-21.6 16.2-3-2-6.2-3.2-9.8-3.2-9 0-16.3 6.8-17.3 15.7h-2c-8.4 0-15.6 6-17.3 14v.5c-.2 1-.2 2-.2 3 0 9.5 8 17.5 17.5 17.5h80c12.8.5 23-9.6 23-22.2zm-116.7 5c0-.6 0-1.6.3-2.3v-.5c1.4-6.5 7.2-11 13.6-11h3.6c1 0 1.7-.8 1.7-1.8 0-7.7 6.3-14 14-14 5.5 0 10.5 3.2 12.6 8.3.6 1 1.6 1.2 2.5 1 1-.6 1.2-1.5 1-2.5-.7-1.7-2-3.3-3-4.8 1.8-9 9.5-15.2 18.4-15.2 10.4 0 18.8 8.5 18.8 19 0 2-.2 4.2-1 6-.2 1 .3 2 1.2 2.2h.5c.7 0 1.5-.4 1.7-1.2.7-2 1-3.8 1.2-6 2.4-1 4.8-1.4 7.4-1.4 10.6 0 19 8.4 19 19s-8.4 19-19 19H78.2c-7.6.3-14-6-14-13.7z"/>
      </g>
    </g>
  </g>
</svg>
